# xmcd
#
# Track frame offsets:
# 150
# 27020
# 64332
# 91700
# 114307
# 154357
# 181415
# 211885
# 241707
# 286942
#
# Disc length: 4260 seconds
#
#
# Revision: 0
# Processed by: cddbd v1.4PL0 Copyright (c) Steve Scherf et al.
# Submitted via: FreeRIP 2.30 
#
DISCID=7c10a20a
DTITLE=Mark Lewis - Global Frequencies: Tokyo
DYEAR=2001
DGENRE=Blues
TTITLE0=Alpha Project: Viciosio
TTITLE1=Thunder Puss: Fuck me Harder
TTITLE2=DJ Hooligan: Elichelruck
TTITLE3=Timo Mass: Ubik
TTITLE4=The Thrillseekers: Synaesthesia (Paul Van Dyk Mix)
TTITLE5=Base Twelve: Deep
TTITLE6=Parks and Wilson: Feel the Drum
TTITLE7=X Tech: Days Like These
TTITLE8=Future Cast: Life On the Edge
TTITLE9=Seed: Water Song
EXTD=great CD
EXTT0=
EXTT1=
EXTT2=
EXTT3=
EXTT4=
EXTT5=
EXTT6=
EXTT7=
EXTT8=
EXTT9=
PLAYORDER=
